# xmcd CD database file
#
# Track frame offsets:
#	150
#	10021
#	21531
#	32809
#	41062
#	53531
#	65391
#	73789
#	83729
#	95827
#	105276
#	113077
#	120624
#	129652
#	140689
#	149508
#	159503
#	167440
#	179905
#	192691
#	201142
#	211402
#	221467
#	231334
#	238967
#
# Disc length: 3320 seconds
#
# Revision: 0
# Processed by: cddbd v1.5.2PL0 Copyright (c) Steve Scherf et al.
# Submitted via: CDex 1.51
#
DISCID=7a0cf619
DTITLE=Johnny Cash - 100 Hits Disc 2
DYEAR=2017
DGENRE=Country
TTITLE0=Ballad Of A Teenage Queen
TTITLE1=I Still Miss Someone
TTITLE2=Big River
TTITLE3=Guess Things Happen That Way
TTITLE4=Give My Love To Rose (alt version)
TTITLE5=Home Of The Blues
TTITLE6=Country Boy
TTITLE7=I Could Never Be Ashamed Of You
TTITLE8=That's Enough
TTITLE9=All Over Again
TTITLE10=The Wreck Of Old '97
TTITLE11=If The Good Lord's Willing
TTITLE12=One More Ride
TTITLE13=Don't Make Me Go
TTITLE14=Pickin' Time
TTITLE15=Run Softly, Blue River
TTITLE16=I Can't Help It (Alt. Vers.)
TTITLE17=Next In Line
TTITLE18=Supper Time
TTITLE19=That's All Over
TTITLE20=You Win Again
TTITLE21=The Troubadour
TTITLE22=Shepherd Of My Heart
TTITLE23=Hey, Good Lookin'
TTITLE24=The Ways Of A Woman In Love
EXTD=YEAR: 2017
EXTT0=
EXTT1=
EXTT2=
EXTT3=
EXTT4=
EXTT5=
EXTT6=
EXTT7=
EXTT8=
EXTT9=
EXTT10=
EXTT11=
EXTT12=
EXTT13=
EXTT14=
EXTT15=
EXTT16=
EXTT17=
EXTT18=
EXTT19=
EXTT20=
EXTT21=
EXTT22=
EXTT23=
EXTT24=
PLAYORDER=
